<mxfile host="app.diagrams.net" modified="2023-03-01T14:39:21.028Z" agent="5.0 (Windows NT 10.0; Win64; x64) AppleWebKit/537.36 (KHTML, like Gecko) Chrome/107.0.0.0 Safari/537.36" etag="hindcdnZoobxr_LdfzLT" version="20.8.20" type="github">
  <diagram name="第 1 页" id="c99kCFelRbTjB77mnA7Q">
    <mxGraphModel dx="1397" dy="754" grid="1" gridSize="10" guides="1" tooltips="1" connect="1" arrows="1" fold="1" page="1" pageScale="1" pageWidth="827" pageHeight="1169" math="0" shadow="0">
      <root>
        <mxCell id="0" />
        <mxCell id="1" parent="0" />
        <mxCell id="k5vuUBOmSkLUPyk9iAV7-2" value="add_to_head" style="text;html=1;strokeColor=none;fillColor=none;align=center;verticalAlign=middle;whiteSpace=wrap;rounded=0;fontSize=17;" vertex="1" parent="1">
          <mxGeometry x="100" y="80" width="60" height="30" as="geometry" />
        </mxCell>
        <mxCell id="k5vuUBOmSkLUPyk9iAV7-5" style="edgeStyle=orthogonalEdgeStyle;rounded=0;orthogonalLoop=1;jettySize=auto;html=1;fontSize=17;entryX=0;entryY=0.5;entryDx=0;entryDy=0;movable=0;resizable=0;rotatable=0;deletable=0;editable=0;locked=1;connectable=0;" edge="1" parent="1" source="k5vuUBOmSkLUPyk9iAV7-4" target="k5vuUBOmSkLUPyk9iAV7-6">
          <mxGeometry relative="1" as="geometry">
            <mxPoint x="180" y="190" as="targetPoint" />
          </mxGeometry>
        </mxCell>
        <mxCell id="k5vuUBOmSkLUPyk9iAV7-4" value="" style="ellipse;whiteSpace=wrap;html=1;aspect=fixed;fontSize=17;" vertex="1" parent="1">
          <mxGeometry x="240" y="170" width="40" height="40" as="geometry" />
        </mxCell>
        <mxCell id="k5vuUBOmSkLUPyk9iAV7-9" style="edgeStyle=orthogonalEdgeStyle;rounded=0;orthogonalLoop=1;jettySize=auto;html=1;entryX=0;entryY=0.5;entryDx=0;entryDy=0;fontSize=17;movable=0;resizable=0;rotatable=0;deletable=0;editable=0;locked=1;connectable=0;" edge="1" parent="1" source="k5vuUBOmSkLUPyk9iAV7-6" target="k5vuUBOmSkLUPyk9iAV7-8">
          <mxGeometry relative="1" as="geometry" />
        </mxCell>
        <mxCell id="k5vuUBOmSkLUPyk9iAV7-6" value="" style="ellipse;whiteSpace=wrap;html=1;aspect=fixed;fontSize=17;" vertex="1" parent="1">
          <mxGeometry x="330" y="170" width="40" height="40" as="geometry" />
        </mxCell>
        <mxCell id="k5vuUBOmSkLUPyk9iAV7-12" style="edgeStyle=orthogonalEdgeStyle;rounded=0;orthogonalLoop=1;jettySize=auto;html=1;entryX=0;entryY=0.5;entryDx=0;entryDy=0;fontSize=17;" edge="1" parent="1" source="k5vuUBOmSkLUPyk9iAV7-8" target="k5vuUBOmSkLUPyk9iAV7-10">
          <mxGeometry relative="1" as="geometry" />
        </mxCell>
        <mxCell id="k5vuUBOmSkLUPyk9iAV7-8" value="" style="ellipse;whiteSpace=wrap;html=1;aspect=fixed;fontSize=17;" vertex="1" parent="1">
          <mxGeometry x="420" y="170" width="40" height="40" as="geometry" />
        </mxCell>
        <mxCell id="k5vuUBOmSkLUPyk9iAV7-10" value="" style="ellipse;whiteSpace=wrap;html=1;aspect=fixed;fontSize=17;" vertex="1" parent="1">
          <mxGeometry x="504" y="170" width="40" height="40" as="geometry" />
        </mxCell>
        <mxCell id="k5vuUBOmSkLUPyk9iAV7-15" value="" style="group;movable=1;resizable=1;rotatable=1;deletable=1;editable=1;locked=0;connectable=1;" vertex="1" connectable="0" parent="1">
          <mxGeometry x="230" y="220" width="60" height="60" as="geometry" />
        </mxCell>
        <mxCell id="k5vuUBOmSkLUPyk9iAV7-13" value="" style="endArrow=classic;html=1;rounded=0;fontSize=17;movable=1;resizable=1;rotatable=1;deletable=1;editable=1;locked=0;connectable=1;" edge="1" parent="k5vuUBOmSkLUPyk9iAV7-15">
          <mxGeometry width="50" height="50" relative="1" as="geometry">
            <mxPoint x="30" y="30" as="sourcePoint" />
            <mxPoint x="29.5" as="targetPoint" />
          </mxGeometry>
        </mxCell>
        <mxCell id="k5vuUBOmSkLUPyk9iAV7-14" value="head" style="text;html=1;strokeColor=none;fillColor=none;align=center;verticalAlign=middle;whiteSpace=wrap;rounded=0;fontSize=17;movable=1;resizable=1;rotatable=1;deletable=1;editable=1;locked=0;connectable=1;" vertex="1" parent="k5vuUBOmSkLUPyk9iAV7-15">
          <mxGeometry y="30" width="60" height="30" as="geometry" />
        </mxCell>
        <mxCell id="k5vuUBOmSkLUPyk9iAV7-21" style="edgeStyle=orthogonalEdgeStyle;rounded=0;orthogonalLoop=1;jettySize=auto;html=1;fontSize=17;entryX=0;entryY=0.5;entryDx=0;entryDy=0;movable=0;resizable=0;rotatable=0;deletable=0;editable=0;locked=1;connectable=0;" edge="1" parent="1" target="k5vuUBOmSkLUPyk9iAV7-24">
          <mxGeometry relative="1" as="geometry">
            <mxPoint x="190" y="200" as="targetPoint" />
            <mxPoint x="280" y="390" as="sourcePoint" />
          </mxGeometry>
        </mxCell>
        <mxCell id="k5vuUBOmSkLUPyk9iAV7-23" style="edgeStyle=orthogonalEdgeStyle;rounded=0;orthogonalLoop=1;jettySize=auto;html=1;entryX=0;entryY=0.5;entryDx=0;entryDy=0;fontSize=17;movable=0;resizable=0;rotatable=0;deletable=0;editable=0;locked=1;connectable=0;" edge="1" parent="1" target="k5vuUBOmSkLUPyk9iAV7-26">
          <mxGeometry relative="1" as="geometry">
            <mxPoint x="370" y="390" as="sourcePoint" />
          </mxGeometry>
        </mxCell>
        <mxCell id="k5vuUBOmSkLUPyk9iAV7-29" value="x" style="ellipse;whiteSpace=wrap;html=1;aspect=fixed;fontSize=17;" vertex="1" parent="1">
          <mxGeometry x="220" y="375" width="40" height="40" as="geometry" />
        </mxCell>
        <mxCell id="k5vuUBOmSkLUPyk9iAV7-30" value="&lt;font color=&quot;#cc1d1d&quot;&gt;e[current] = x&lt;/font&gt;" style="text;html=1;strokeColor=none;fillColor=none;align=center;verticalAlign=middle;whiteSpace=wrap;rounded=0;fontSize=17;" vertex="1" parent="1">
          <mxGeometry x="60" y="375" width="140" height="30" as="geometry" />
        </mxCell>
        <mxCell id="k5vuUBOmSkLUPyk9iAV7-39" value="" style="group;movable=1;resizable=1;rotatable=1;deletable=1;editable=1;locked=0;connectable=1;" vertex="1" connectable="0" parent="1">
          <mxGeometry x="210" y="425" width="60" height="60" as="geometry" />
        </mxCell>
        <mxCell id="k5vuUBOmSkLUPyk9iAV7-40" value="" style="endArrow=classic;html=1;rounded=0;fontSize=17;movable=1;resizable=1;rotatable=1;deletable=1;editable=1;locked=0;connectable=1;" edge="1" parent="k5vuUBOmSkLUPyk9iAV7-39">
          <mxGeometry width="50" height="50" relative="1" as="geometry">
            <mxPoint x="30" y="30" as="sourcePoint" />
            <mxPoint x="29.5" as="targetPoint" />
          </mxGeometry>
        </mxCell>
        <mxCell id="k5vuUBOmSkLUPyk9iAV7-41" value="current" style="text;html=1;strokeColor=none;fillColor=none;align=center;verticalAlign=middle;whiteSpace=wrap;rounded=0;fontSize=17;movable=1;resizable=1;rotatable=1;deletable=1;editable=1;locked=0;connectable=1;" vertex="1" parent="k5vuUBOmSkLUPyk9iAV7-39">
          <mxGeometry y="30" width="60" height="30" as="geometry" />
        </mxCell>
        <mxCell id="k5vuUBOmSkLUPyk9iAV7-42" value="&lt;font color=&quot;#cc1d1d&quot;&gt;ne[current] = head&lt;/font&gt;" style="text;html=1;strokeColor=none;fillColor=none;align=center;verticalAlign=middle;whiteSpace=wrap;rounded=0;fontSize=17;" vertex="1" parent="1">
          <mxGeometry x="50" y="540" width="160" height="30" as="geometry" />
        </mxCell>
        <mxCell id="k5vuUBOmSkLUPyk9iAV7-57" style="edgeStyle=orthogonalEdgeStyle;rounded=0;orthogonalLoop=1;jettySize=auto;html=1;entryX=0;entryY=0.5;entryDx=0;entryDy=0;fontSize=17;fontColor=#CC1D1D;" edge="1" parent="1" source="k5vuUBOmSkLUPyk9iAV7-43" target="k5vuUBOmSkLUPyk9iAV7-48">
          <mxGeometry relative="1" as="geometry" />
        </mxCell>
        <mxCell id="k5vuUBOmSkLUPyk9iAV7-43" value="x" style="ellipse;whiteSpace=wrap;html=1;aspect=fixed;fontSize=17;" vertex="1" parent="1">
          <mxGeometry x="220" y="540" width="40" height="40" as="geometry" />
        </mxCell>
        <mxCell id="k5vuUBOmSkLUPyk9iAV7-44" value="" style="group;movable=1;resizable=1;rotatable=1;deletable=1;editable=1;locked=0;connectable=1;" vertex="1" connectable="0" parent="1">
          <mxGeometry x="210" y="590" width="60" height="60" as="geometry" />
        </mxCell>
        <mxCell id="k5vuUBOmSkLUPyk9iAV7-45" value="" style="endArrow=classic;html=1;rounded=0;fontSize=17;movable=1;resizable=1;rotatable=1;deletable=1;editable=1;locked=0;connectable=1;" edge="1" parent="k5vuUBOmSkLUPyk9iAV7-44">
          <mxGeometry width="50" height="50" relative="1" as="geometry">
            <mxPoint x="30" y="30" as="sourcePoint" />
            <mxPoint x="29.5" as="targetPoint" />
          </mxGeometry>
        </mxCell>
        <mxCell id="k5vuUBOmSkLUPyk9iAV7-46" value="current" style="text;html=1;strokeColor=none;fillColor=none;align=center;verticalAlign=middle;whiteSpace=wrap;rounded=0;fontSize=17;movable=1;resizable=1;rotatable=1;deletable=1;editable=1;locked=0;connectable=1;" vertex="1" parent="k5vuUBOmSkLUPyk9iAV7-44">
          <mxGeometry y="30" width="60" height="30" as="geometry" />
        </mxCell>
        <mxCell id="k5vuUBOmSkLUPyk9iAV7-47" style="edgeStyle=orthogonalEdgeStyle;rounded=0;orthogonalLoop=1;jettySize=auto;html=1;fontSize=17;entryX=0;entryY=0.5;entryDx=0;entryDy=0;movable=0;resizable=0;rotatable=0;deletable=0;editable=0;locked=1;connectable=0;" edge="1" parent="1" source="k5vuUBOmSkLUPyk9iAV7-48" target="k5vuUBOmSkLUPyk9iAV7-50">
          <mxGeometry relative="1" as="geometry">
            <mxPoint x="190" y="200" as="targetPoint" />
          </mxGeometry>
        </mxCell>
        <mxCell id="k5vuUBOmSkLUPyk9iAV7-48" value="" style="ellipse;whiteSpace=wrap;html=1;aspect=fixed;fontSize=17;" vertex="1" parent="1">
          <mxGeometry x="310" y="540" width="40" height="40" as="geometry" />
        </mxCell>
        <mxCell id="k5vuUBOmSkLUPyk9iAV7-49" style="edgeStyle=orthogonalEdgeStyle;rounded=0;orthogonalLoop=1;jettySize=auto;html=1;entryX=0;entryY=0.5;entryDx=0;entryDy=0;fontSize=17;movable=0;resizable=0;rotatable=0;deletable=0;editable=0;locked=1;connectable=0;" edge="1" parent="1" source="k5vuUBOmSkLUPyk9iAV7-50" target="k5vuUBOmSkLUPyk9iAV7-52">
          <mxGeometry relative="1" as="geometry" />
        </mxCell>
        <mxCell id="k5vuUBOmSkLUPyk9iAV7-50" value="" style="ellipse;whiteSpace=wrap;html=1;aspect=fixed;fontSize=17;" vertex="1" parent="1">
          <mxGeometry x="400" y="540" width="40" height="40" as="geometry" />
        </mxCell>
        <mxCell id="k5vuUBOmSkLUPyk9iAV7-51" style="edgeStyle=orthogonalEdgeStyle;rounded=0;orthogonalLoop=1;jettySize=auto;html=1;entryX=0;entryY=0.5;entryDx=0;entryDy=0;fontSize=17;" edge="1" parent="1" source="k5vuUBOmSkLUPyk9iAV7-52" target="k5vuUBOmSkLUPyk9iAV7-53">
          <mxGeometry relative="1" as="geometry" />
        </mxCell>
        <mxCell id="k5vuUBOmSkLUPyk9iAV7-52" value="" style="ellipse;whiteSpace=wrap;html=1;aspect=fixed;fontSize=17;" vertex="1" parent="1">
          <mxGeometry x="490" y="540" width="40" height="40" as="geometry" />
        </mxCell>
        <mxCell id="k5vuUBOmSkLUPyk9iAV7-53" value="" style="ellipse;whiteSpace=wrap;html=1;aspect=fixed;fontSize=17;" vertex="1" parent="1">
          <mxGeometry x="574" y="540" width="40" height="40" as="geometry" />
        </mxCell>
        <mxCell id="k5vuUBOmSkLUPyk9iAV7-54" value="" style="group;movable=1;resizable=1;rotatable=1;deletable=1;editable=1;locked=0;connectable=1;" vertex="1" connectable="0" parent="1">
          <mxGeometry x="300" y="590" width="60" height="60" as="geometry" />
        </mxCell>
        <mxCell id="k5vuUBOmSkLUPyk9iAV7-55" value="" style="endArrow=classic;html=1;rounded=0;fontSize=17;movable=1;resizable=1;rotatable=1;deletable=1;editable=1;locked=0;connectable=1;" edge="1" parent="k5vuUBOmSkLUPyk9iAV7-54">
          <mxGeometry width="50" height="50" relative="1" as="geometry">
            <mxPoint x="30" y="30" as="sourcePoint" />
            <mxPoint x="29.5" as="targetPoint" />
          </mxGeometry>
        </mxCell>
        <mxCell id="k5vuUBOmSkLUPyk9iAV7-56" value="head" style="text;html=1;strokeColor=none;fillColor=none;align=center;verticalAlign=middle;whiteSpace=wrap;rounded=0;fontSize=17;movable=1;resizable=1;rotatable=1;deletable=1;editable=1;locked=0;connectable=1;" vertex="1" parent="k5vuUBOmSkLUPyk9iAV7-54">
          <mxGeometry y="30" width="60" height="30" as="geometry" />
        </mxCell>
        <mxCell id="k5vuUBOmSkLUPyk9iAV7-58" value="&lt;font color=&quot;#cc1d1d&quot;&gt;head = current&lt;/font&gt;" style="text;html=1;strokeColor=none;fillColor=none;align=center;verticalAlign=middle;whiteSpace=wrap;rounded=0;fontSize=17;" vertex="1" parent="1">
          <mxGeometry x="50" y="710" width="160" height="30" as="geometry" />
        </mxCell>
        <mxCell id="k5vuUBOmSkLUPyk9iAV7-59" style="edgeStyle=orthogonalEdgeStyle;rounded=0;orthogonalLoop=1;jettySize=auto;html=1;entryX=0;entryY=0.5;entryDx=0;entryDy=0;fontSize=17;fontColor=#CC1D1D;" edge="1" parent="1" source="k5vuUBOmSkLUPyk9iAV7-60" target="k5vuUBOmSkLUPyk9iAV7-65">
          <mxGeometry relative="1" as="geometry" />
        </mxCell>
        <mxCell id="k5vuUBOmSkLUPyk9iAV7-60" value="x" style="ellipse;whiteSpace=wrap;html=1;aspect=fixed;fontSize=17;" vertex="1" parent="1">
          <mxGeometry x="220" y="700" width="40" height="40" as="geometry" />
        </mxCell>
        <mxCell id="k5vuUBOmSkLUPyk9iAV7-61" value="" style="group;movable=1;resizable=1;rotatable=1;deletable=1;editable=1;locked=0;connectable=1;" vertex="1" connectable="0" parent="1">
          <mxGeometry x="210" y="750" width="60" height="60" as="geometry" />
        </mxCell>
        <mxCell id="k5vuUBOmSkLUPyk9iAV7-62" value="" style="endArrow=classic;html=1;rounded=0;fontSize=17;movable=1;resizable=1;rotatable=1;deletable=1;editable=1;locked=0;connectable=1;entryX=0.5;entryY=1;entryDx=0;entryDy=0;" edge="1" parent="k5vuUBOmSkLUPyk9iAV7-61" target="k5vuUBOmSkLUPyk9iAV7-60">
          <mxGeometry width="50" height="50" relative="1" as="geometry">
            <mxPoint x="30" y="30" as="sourcePoint" />
            <mxPoint x="29.5" as="targetPoint" />
          </mxGeometry>
        </mxCell>
        <mxCell id="k5vuUBOmSkLUPyk9iAV7-63" value="current" style="text;html=1;strokeColor=none;fillColor=none;align=center;verticalAlign=middle;whiteSpace=wrap;rounded=0;fontSize=17;movable=1;resizable=1;rotatable=1;deletable=1;editable=1;locked=0;connectable=1;" vertex="1" parent="k5vuUBOmSkLUPyk9iAV7-61">
          <mxGeometry y="30" width="60" height="30" as="geometry" />
        </mxCell>
        <mxCell id="k5vuUBOmSkLUPyk9iAV7-64" style="edgeStyle=orthogonalEdgeStyle;rounded=0;orthogonalLoop=1;jettySize=auto;html=1;fontSize=17;entryX=0;entryY=0.5;entryDx=0;entryDy=0;movable=0;resizable=0;rotatable=0;deletable=0;editable=0;locked=1;connectable=0;" edge="1" parent="1" source="k5vuUBOmSkLUPyk9iAV7-65" target="k5vuUBOmSkLUPyk9iAV7-67">
          <mxGeometry relative="1" as="geometry">
            <mxPoint x="200" y="210" as="targetPoint" />
          </mxGeometry>
        </mxCell>
        <mxCell id="k5vuUBOmSkLUPyk9iAV7-65" value="" style="ellipse;whiteSpace=wrap;html=1;aspect=fixed;fontSize=17;" vertex="1" parent="1">
          <mxGeometry x="310" y="700" width="40" height="40" as="geometry" />
        </mxCell>
        <mxCell id="k5vuUBOmSkLUPyk9iAV7-66" style="edgeStyle=orthogonalEdgeStyle;rounded=0;orthogonalLoop=1;jettySize=auto;html=1;entryX=0;entryY=0.5;entryDx=0;entryDy=0;fontSize=17;movable=0;resizable=0;rotatable=0;deletable=0;editable=0;locked=1;connectable=0;" edge="1" parent="1" source="k5vuUBOmSkLUPyk9iAV7-67" target="k5vuUBOmSkLUPyk9iAV7-69">
          <mxGeometry relative="1" as="geometry" />
        </mxCell>
        <mxCell id="k5vuUBOmSkLUPyk9iAV7-67" value="" style="ellipse;whiteSpace=wrap;html=1;aspect=fixed;fontSize=17;" vertex="1" parent="1">
          <mxGeometry x="400" y="700" width="40" height="40" as="geometry" />
        </mxCell>
        <mxCell id="k5vuUBOmSkLUPyk9iAV7-68" style="edgeStyle=orthogonalEdgeStyle;rounded=0;orthogonalLoop=1;jettySize=auto;html=1;entryX=0;entryY=0.5;entryDx=0;entryDy=0;fontSize=17;" edge="1" parent="1" source="k5vuUBOmSkLUPyk9iAV7-69" target="k5vuUBOmSkLUPyk9iAV7-70">
          <mxGeometry relative="1" as="geometry" />
        </mxCell>
        <mxCell id="k5vuUBOmSkLUPyk9iAV7-69" value="" style="ellipse;whiteSpace=wrap;html=1;aspect=fixed;fontSize=17;" vertex="1" parent="1">
          <mxGeometry x="490" y="700" width="40" height="40" as="geometry" />
        </mxCell>
        <mxCell id="k5vuUBOmSkLUPyk9iAV7-70" value="" style="ellipse;whiteSpace=wrap;html=1;aspect=fixed;fontSize=17;" vertex="1" parent="1">
          <mxGeometry x="574" y="700" width="40" height="40" as="geometry" />
        </mxCell>
        <mxCell id="k5vuUBOmSkLUPyk9iAV7-71" value="" style="group;movable=1;resizable=1;rotatable=1;deletable=1;editable=1;locked=0;connectable=1;" vertex="1" connectable="0" parent="1">
          <mxGeometry x="300" y="750" width="60" height="60" as="geometry" />
        </mxCell>
        <mxCell id="k5vuUBOmSkLUPyk9iAV7-72" value="" style="endArrow=classic;html=1;rounded=0;fontSize=17;movable=1;resizable=1;rotatable=1;deletable=1;editable=1;locked=0;connectable=1;entryX=1;entryY=1;entryDx=0;entryDy=0;" edge="1" parent="k5vuUBOmSkLUPyk9iAV7-71" target="k5vuUBOmSkLUPyk9iAV7-60">
          <mxGeometry width="50" height="50" relative="1" as="geometry">
            <mxPoint x="30" y="30" as="sourcePoint" />
            <mxPoint x="29.5" as="targetPoint" />
          </mxGeometry>
        </mxCell>
        <mxCell id="k5vuUBOmSkLUPyk9iAV7-73" value="head" style="text;html=1;strokeColor=none;fillColor=none;align=center;verticalAlign=middle;whiteSpace=wrap;rounded=0;fontSize=17;movable=1;resizable=1;rotatable=1;deletable=1;editable=1;locked=0;connectable=1;" vertex="1" parent="k5vuUBOmSkLUPyk9iAV7-71">
          <mxGeometry y="30" width="60" height="30" as="geometry" />
        </mxCell>
        <mxCell id="k5vuUBOmSkLUPyk9iAV7-75" value="&lt;font color=&quot;#cc1d1d&quot;&gt;current++&lt;/font&gt;" style="text;html=1;strokeColor=none;fillColor=none;align=center;verticalAlign=middle;whiteSpace=wrap;rounded=0;fontSize=17;" vertex="1" parent="1">
          <mxGeometry x="40" y="860" width="160" height="30" as="geometry" />
        </mxCell>
        <mxCell id="k5vuUBOmSkLUPyk9iAV7-76" style="edgeStyle=orthogonalEdgeStyle;rounded=0;orthogonalLoop=1;jettySize=auto;html=1;entryX=0;entryY=0.5;entryDx=0;entryDy=0;fontSize=17;fontColor=#CC1D1D;" edge="1" parent="1" source="k5vuUBOmSkLUPyk9iAV7-77" target="k5vuUBOmSkLUPyk9iAV7-82">
          <mxGeometry relative="1" as="geometry" />
        </mxCell>
        <mxCell id="k5vuUBOmSkLUPyk9iAV7-77" value="x" style="ellipse;whiteSpace=wrap;html=1;aspect=fixed;fontSize=17;" vertex="1" parent="1">
          <mxGeometry x="220" y="860" width="40" height="40" as="geometry" />
        </mxCell>
        <mxCell id="k5vuUBOmSkLUPyk9iAV7-81" style="edgeStyle=orthogonalEdgeStyle;rounded=0;orthogonalLoop=1;jettySize=auto;html=1;fontSize=17;entryX=0;entryY=0.5;entryDx=0;entryDy=0;movable=0;resizable=0;rotatable=0;deletable=0;editable=0;locked=1;connectable=0;" edge="1" parent="1" source="k5vuUBOmSkLUPyk9iAV7-82" target="k5vuUBOmSkLUPyk9iAV7-84">
          <mxGeometry relative="1" as="geometry">
            <mxPoint x="210" y="220" as="targetPoint" />
          </mxGeometry>
        </mxCell>
        <mxCell id="k5vuUBOmSkLUPyk9iAV7-82" value="" style="ellipse;whiteSpace=wrap;html=1;aspect=fixed;fontSize=17;" vertex="1" parent="1">
          <mxGeometry x="310" y="860" width="40" height="40" as="geometry" />
        </mxCell>
        <mxCell id="k5vuUBOmSkLUPyk9iAV7-83" style="edgeStyle=orthogonalEdgeStyle;rounded=0;orthogonalLoop=1;jettySize=auto;html=1;entryX=0;entryY=0.5;entryDx=0;entryDy=0;fontSize=17;movable=0;resizable=0;rotatable=0;deletable=0;editable=0;locked=1;connectable=0;" edge="1" parent="1" source="k5vuUBOmSkLUPyk9iAV7-84" target="k5vuUBOmSkLUPyk9iAV7-86">
          <mxGeometry relative="1" as="geometry" />
        </mxCell>
        <mxCell id="k5vuUBOmSkLUPyk9iAV7-84" value="" style="ellipse;whiteSpace=wrap;html=1;aspect=fixed;fontSize=17;" vertex="1" parent="1">
          <mxGeometry x="400" y="860" width="40" height="40" as="geometry" />
        </mxCell>
        <mxCell id="k5vuUBOmSkLUPyk9iAV7-85" style="edgeStyle=orthogonalEdgeStyle;rounded=0;orthogonalLoop=1;jettySize=auto;html=1;entryX=0;entryY=0.5;entryDx=0;entryDy=0;fontSize=17;" edge="1" parent="1" source="k5vuUBOmSkLUPyk9iAV7-86" target="k5vuUBOmSkLUPyk9iAV7-87">
          <mxGeometry relative="1" as="geometry" />
        </mxCell>
        <mxCell id="k5vuUBOmSkLUPyk9iAV7-86" value="" style="ellipse;whiteSpace=wrap;html=1;aspect=fixed;fontSize=17;" vertex="1" parent="1">
          <mxGeometry x="490" y="860" width="40" height="40" as="geometry" />
        </mxCell>
        <mxCell id="k5vuUBOmSkLUPyk9iAV7-87" value="" style="ellipse;whiteSpace=wrap;html=1;aspect=fixed;fontSize=17;" vertex="1" parent="1">
          <mxGeometry x="574" y="860" width="40" height="40" as="geometry" />
        </mxCell>
        <mxCell id="k5vuUBOmSkLUPyk9iAV7-88" value="" style="group;movable=1;resizable=1;rotatable=1;deletable=1;editable=1;locked=0;connectable=1;" vertex="1" connectable="0" parent="1">
          <mxGeometry x="210" y="910" width="60" height="60" as="geometry" />
        </mxCell>
        <mxCell id="k5vuUBOmSkLUPyk9iAV7-89" value="" style="endArrow=classic;html=1;rounded=0;fontSize=17;movable=1;resizable=1;rotatable=1;deletable=1;editable=1;locked=0;connectable=1;entryX=0.5;entryY=1;entryDx=0;entryDy=0;" edge="1" parent="k5vuUBOmSkLUPyk9iAV7-88" target="k5vuUBOmSkLUPyk9iAV7-77">
          <mxGeometry width="50" height="50" relative="1" as="geometry">
            <mxPoint x="30" y="30" as="sourcePoint" />
            <mxPoint x="29.5" as="targetPoint" />
          </mxGeometry>
        </mxCell>
        <mxCell id="k5vuUBOmSkLUPyk9iAV7-90" value="head" style="text;html=1;strokeColor=none;fillColor=none;align=center;verticalAlign=middle;whiteSpace=wrap;rounded=0;fontSize=17;movable=1;resizable=1;rotatable=1;deletable=1;editable=1;locked=0;connectable=1;" vertex="1" parent="k5vuUBOmSkLUPyk9iAV7-88">
          <mxGeometry y="30" width="60" height="30" as="geometry" />
        </mxCell>
        <mxCell id="k5vuUBOmSkLUPyk9iAV7-91" value="" style="group;movable=1;resizable=1;rotatable=1;deletable=1;editable=1;locked=0;connectable=1;" vertex="1" connectable="0" parent="1">
          <mxGeometry x="640" y="910" width="60" height="60" as="geometry" />
        </mxCell>
        <mxCell id="k5vuUBOmSkLUPyk9iAV7-92" value="" style="endArrow=classic;html=1;rounded=0;fontSize=17;movable=1;resizable=1;rotatable=1;deletable=1;editable=1;locked=0;connectable=1;" edge="1" parent="k5vuUBOmSkLUPyk9iAV7-91">
          <mxGeometry width="50" height="50" relative="1" as="geometry">
            <mxPoint x="30" y="30" as="sourcePoint" />
            <mxPoint x="29.5" as="targetPoint" />
          </mxGeometry>
        </mxCell>
        <mxCell id="k5vuUBOmSkLUPyk9iAV7-93" value="current" style="text;html=1;strokeColor=none;fillColor=none;align=center;verticalAlign=middle;whiteSpace=wrap;rounded=0;fontSize=17;movable=1;resizable=1;rotatable=1;deletable=1;editable=1;locked=0;connectable=1;" vertex="1" parent="k5vuUBOmSkLUPyk9iAV7-91">
          <mxGeometry y="30" width="60" height="30" as="geometry" />
        </mxCell>
        <mxCell id="k5vuUBOmSkLUPyk9iAV7-94" value="" style="ellipse;whiteSpace=wrap;html=1;dashed=1;dashPattern=8 8;fontSize=17;fontColor=#CC1D1D;" vertex="1" parent="1">
          <mxGeometry x="650" y="860" width="40" height="40" as="geometry" />
        </mxCell>
      </root>
    </mxGraphModel>
  </diagram>
</mxfile>
